<svg width="54" height="70" fill="#fff" xmlns="http://www.w3.org/2000/svg"><path d="M28.47 39.753l.023-.106c.442-1.821.998-4.09.564-6.148-.29-1.622-1.486-2.254-2.506-2.3-1.204-.053-2.278.632-2.545 1.63-.502 1.828-.053 4.327.77 7.51-1.036 2.469-2.69 6.056-3.9 8.19-2.255 1.165-5.279 2.962-5.728 5.232-.092.42.015.952.266 1.432.282.533.731.945 1.257 1.143.229.084.503.152.823.152 1.34 0 3.511-1.082 6.406-6.048.442-.145.899-.297 1.34-.45 2.072-.7 4.22-1.431 6.163-1.759 2.148 1.15 4.593 1.89 6.253 1.89 1.646 0 2.293-.976 2.537-1.562.427-1.029.22-2.324-.472-3.017-1.006-.99-3.45-1.249-7.26-.777-1.873-1.142-3.1-2.696-3.99-5.012zm-8.356 11.57c-1.059 1.54-1.858 2.309-2.293 2.644.51-.937 1.508-1.927 2.293-2.643zm6.673-17.938c.396.678.343 2.727.038 3.763-.373-1.516-.427-3.664-.206-3.915.061.007.114.053.168.152zm-.122 9.179c.815 1.409 1.843 2.62 2.978 3.519-1.645.373-3.146.99-4.486 1.539-.32.13-.633.259-.937.38 1.013-1.835 1.858-3.915 2.445-5.438zm11.852 4.99c.008.014.015.037-.03.068h-.016l-.015.023c-.06.038-.685.403-3.374-.656 3.092-.144 3.428.556 3.435.564zm14.58-29.57L36.703 1.59a2.433 2.433 0 00-1.721-.716H2.625A2.435 2.435 0 00.187 3.313v63.374a2.435 2.435 0 002.438 2.438h48.75a2.435 2.435 0 002.438-2.438V19.712a2.45 2.45 0 00-.717-1.729zm-4.906 2.848H33.855V6.496l14.336 14.336zm.137 42.809H5.672V6.359h23.004v16.453a3.2 3.2 0 003.199 3.2h16.453V63.64z"/></svg>
