<svg width="31" height="31" viewBox="0 0 31 31" fill="white" xmlns="http://www.w3.org/2000/svg">
    <path d="M25.8333 0H5.16667C2.23889 0 0 2.23889 0 5.16667V25.8333C0 28.7611 2.23889 31 5.16667 31H25.8333C28.7611 31 31 28.7611 31 25.8333V5.16667C31 2.23889 28.7611 0 25.8333 0ZM15.5 10.3333C18.4278 10.3333 20.6667 12.5722 20.6667 15.5C20.6667 18.4278 18.4278 20.6667 15.5 20.6667C12.5722 20.6667 10.3333 18.4278 10.3333 15.5C10.3333 12.5722 12.5722 10.3333 15.5 10.3333ZM22.0444 6.88889C22.0444 5.68333 23.0778 4.82222 24.1111 4.82222C25.1444 4.82222 26.1778 5.85556 26.1778 6.88889C26.1778 7.92222 25.3167 8.95555 24.1111 8.95555C22.9056 8.95555 22.0444 8.09444 22.0444 6.88889ZM25.8333 27.5556H5.16667C4.13333 27.5556 3.44444 26.8667 3.44444 25.8333V15.5H6.88889C6.88889 20.3222 10.6778 24.1111 15.5 24.1111C20.3222 24.1111 24.1111 20.3222 24.1111 15.5H27.5556V25.8333C27.5556 26.8667 26.8667 27.5556 25.8333 27.5556Z"/>
</svg>
