<svg width="47" height="223" fill="none" xmlns="http://www.w3.org/2000/svg"><g clip-path="url(#clip0)" fill="#fff"><path d="M11.275 212.432c.65 0 1.216.129 1.706.386.49.258.894.617 1.219 1.075.325.461.566 1.013.728 1.659.163.647.241 1.36.241 2.136 0 .35-.015.7-.042 1.051-.027.347-.063.682-.105 1.003a13.668 13.668 0 01-.325 1.68h-1.8a9.17 9.17 0 00.46-1.71 12.51 12.51 0 00.169-2.156c0-.581-.048-1.078-.142-1.486-.093-.41-.234-.742-.418-1.003a1.656 1.656 0 00-.674-.569 2.183 2.183 0 00-.91-.176c-.37 0-.685.098-.947.299a2.952 2.952 0 00-.701.788 7.182 7.182 0 00-.566 1.111c-.172.416-.346.841-.53 1.272-.18.435-.38.857-.59 1.273-.21.416-.463.788-.752 1.111a3.494 3.494 0 01-1.02.788c-.392.2-.855.299-1.391.299-.467 0-.927-.096-1.382-.284a3.287 3.287 0 01-1.21-.884c-.352-.398-.635-.91-.851-1.536-.217-.626-.325-1.372-.325-2.237 0-.225.009-.464.03-.725.02-.26.051-.524.09-.79.04-.267.081-.53.13-.791.048-.26.102-.503.156-.725h1.673a11.67 11.67 0 00-.349 1.564 9.793 9.793 0 00-.12 1.512c0 1.036.177 1.797.533 2.285.355.488.833.731 1.432.731.37 0 .686-.099.951-.3.265-.201.503-.461.71-.788.211-.323.4-.694.57-1.111.171-.416.346-.841.53-1.272.18-.435.378-.857.595-1.273.217-.416.473-.788.77-1.111a3.645 3.645 0 011.042-.788c.4-.206.87-.308 1.415-.308zM9.643 200.63a7.15 7.15 0 012.245.335c.68.225 1.262.545 1.75.965.484.419.86.931 1.128 1.533.268.602.403 1.285.403 2.048 0 .731-.117 1.387-.352 1.965a3.9 3.9 0 01-1.03 1.47c-.454.401-1.014.71-1.685.923-.668.212-1.441.32-2.311.32-.816 0-1.562-.111-2.233-.335a5.057 5.057 0 01-1.737-.965 4.321 4.321 0 01-1.129-1.533c-.268-.602-.403-1.285-.403-2.051 0-.731.117-1.387.35-1.965a3.892 3.892 0 011.025-1.47c.449-.401 1.009-.71 1.68-.923.668-.209 1.435-.317 2.3-.317zm.085 1.809c-.65 0-1.216.069-1.701.206-.485.138-.888.336-1.213.593a2.438 2.438 0 00-.731.938 3.017 3.017 0 00-.247 1.233c0 .528.105.98.319 1.354.214.374.497.683.852.922.355.24.77.417 1.24.527.47.111.963.168 1.48.168.65 0 1.216-.069 1.707-.209.488-.138.894-.336 1.219-.593.325-.258.569-.569.731-.935.163-.365.247-.778.247-1.237 0-.527-.105-.979-.319-1.353a2.723 2.723 0 00-.852-.922 3.71 3.71 0 00-1.24-.527 6.505 6.505 0 00-1.492-.165zM1.692 194.602v3.015H.196v-4.8h13.267v-3.034h1.517v8.17h-1.517v-3.348H1.692v-.003zM14.98 180.101l-1.412.042c.566.554.972 1.117 1.225 1.689.25.572.376 1.171.376 1.803 0 .581-.078 1.078-.232 1.491a2.81 2.81 0 01-.632 1.022 2.48 2.48 0 01-.948.59 3.608 3.608 0 01-1.183.188c-1.053 0-1.878-.38-2.474-1.141-.595-.76-.893-1.886-.893-3.375v-2.111h-.921c-.62 0-1.117.192-1.49.578-.373.386-.56.973-.56 1.767 0 .575.066 1.141.199 1.701a11.8 11.8 0 00.565 1.731H4.957a10.785 10.785 0 01-.611-2.567 8.583 8.583 0 01-.057-1.006c0-.617.07-1.171.21-1.665.14-.494.353-.91.639-1.252a2.795 2.795 0 011.077-.787c.434-.183.942-.276 1.53-.276h7.24v1.578h-.005zm-4.783.192v2.243c0 .44.045.818.136 1.135.09.318.22.578.388.782.168.203.367.353.602.452.234.099.496.147.788.147.202 0 .397-.03.581-.093.184-.06.35-.159.49-.294.145-.134.256-.311.34-.527.085-.215.127-.479.127-.79 0-.408-.126-.872-.382-1.396-.256-.524-.656-1.078-1.21-1.659h-1.86zM4.476 174.804v-1.614l1.935-.051c-.747-.602-1.288-1.195-1.622-1.782-.334-.584-.503-1.174-.503-1.769 0-1.055.352-1.857 1.056-2.399.705-.545 1.752-.797 3.14-.755v1.785c-.921-.021-1.59.111-2.005.389-.415.282-.623.692-.623 1.234 0 .237.045.476.13.716.087.239.225.488.418.739.192.255.436.525.737.806.301.285.662.587 1.09.913h6.748v1.785H4.476v.003zM14.98 155.42v7.63H1.303v-1.835h12.084v-5.795h1.592zM14.98 145.822l-1.412.042c.566.554.972 1.117 1.225 1.689.25.572.376 1.17.376 1.802 0 .581-.078 1.078-.232 1.492a2.814 2.814 0 01-.632 1.021 2.48 2.48 0 01-.948.59 3.582 3.582 0 01-1.183.188c-1.053 0-1.878-.38-2.474-1.14-.595-.761-.893-1.887-.893-3.375v-2.112h-.921c-.62 0-1.117.192-1.49.578-.373.387-.56.974-.56 1.767 0 .575.066 1.141.199 1.701a11.8 11.8 0 00.565 1.731H4.957a10.785 10.785 0 01-.611-2.566 8.613 8.613 0 01-.057-1.007c0-.617.07-1.171.21-1.665.14-.494.353-.91.639-1.251a2.797 2.797 0 011.077-.788c.434-.183.942-.276 1.53-.276h7.24v1.579h-.005zm-4.783.191v2.243c0 .441.045.818.136 1.135.09.318.22.578.388.782.168.204.367.353.602.452.234.099.496.147.788.147.202 0 .397-.03.581-.093.184-.06.35-.159.49-.293.145-.135.256-.312.34-.528.085-.215.127-.479.127-.79 0-.407-.126-.872-.382-1.396-.256-.524-.656-1.078-1.21-1.659h-1.86zM9.538 132.232c.873 0 1.652.117 2.338.35.687.234 1.27.566 1.75.995.478.431.842.952 1.098 1.569.255.617.382 1.308.382 2.081 0 .602-.06 1.219-.178 1.848a9.173 9.173 0 01-.566 1.868H.197v-1.766h4.069l1.947.08c-.704-.506-1.2-1.051-1.49-1.629a4.105 4.105 0 01-.433-1.862c0-.581.126-1.093.376-1.534.25-.44.605-.808 1.063-1.105.457-.296 1.008-.521 1.652-.67a9.532 9.532 0 012.158-.225zm.084 1.806c-.55 0-1.056.039-1.517.116a4 4 0 00-1.183.372 2.086 2.086 0 00-.77.65 1.608 1.608 0 00-.277.943c0 .225.036.449.108.68.073.23.196.467.368.715.171.249.397.507.68.782.283.276.632.566 1.05.878h5.096c.138-.345.25-.698.33-1.055.082-.359.121-.7.121-1.024 0-.407-.066-.793-.198-1.162a2.389 2.389 0 00-.666-.973c-.31-.281-.722-.503-1.234-.671-.511-.167-1.146-.251-1.908-.251zM4.569 129.016l-1.162-1.096 5.87-6.819 5.868 6.819-1.15 1.096-4.698-5.531-4.728 5.531zM19.268 108.284v11.427H17.76v-11.427h1.508zM47 60.687v65.307h-1.204V60.917l-7.205-17.8V21.861h1.204v21.025L47 60.686zm-.602 64.708V60.801L39.193 43l7.205 17.8v64.594z"/><path d="M42.013 60.696v162.166h-1.204V60.914l-6.82-17.8V13.57h1.204v29.323l6.82 17.804zm-.602 161.567V60.806v161.457zM34.59 43.006l4.716 12.305-4.716-12.305z"/><path d="M35.8 84.73v137.521h-1.203V84.731H35.8zM35.2 221.654V85.33v136.323zM29.49 15.767v104.319l-5.836 8.885v93.58h-2.107v-94.203l5.835-8.885V16.896l-9.697-6.33 1.156-1.753 10.648 6.954z"/><path d="M29.94 15.524V120.22l-5.832 8.886V223h-3.01v-94.787l5.833-8.885V17.138l-9.869-6.447 1.652-2.504 11.227 7.337zm-.902 104.427V16.006L18.97 9.433l-.659 1 9.523 6.22v102.942l-5.833 8.885v93.622h1.204v-93.263l5.833-8.888z"/><path d="M15.202 88.603c1.162 0 2.17.206 3.028.623a5.737 5.737 0 012.125 1.745c.56.75.975 1.635 1.246 2.669.27 1.03.406 2.156.406 3.378a24.68 24.68 0 01-.196 3.141 18.07 18.07 0 01-.65 3.001h-3.957c.174-.485.337-.989.487-1.516.15-.527.286-1.054.398-1.587.114-.53.204-1.06.267-1.587.067-.527.097-1.036.097-1.53 0-.737-.066-1.363-.196-1.878-.13-.515-.31-.937-.536-1.264a2.067 2.067 0 00-.812-.71 2.44 2.44 0 00-1.042-.221c-.52 0-.957.144-1.309.434-.352.29-.665.671-.936 1.144-.27.473-.515 1.012-.731 1.617a55.412 55.412 0 01-.702 1.848c-.25.626-.532 1.243-.845 1.848a6.698 6.698 0 01-1.171 1.617 5.433 5.433 0 01-1.667 1.144c-.645.29-1.424.434-2.336.434a6.409 6.409 0 01-2.378-.443 5.073 5.073 0 01-1.962-1.39c-.56-.632-1.002-1.44-1.333-2.431C.166 97.7 0 96.506 0 95.104c0-.41.018-.838.057-1.288.04-.446.087-.89.148-1.326a21.293 21.293 0 01.463-2.378h3.663c-.13.338-.25.707-.358 1.105-.108.401-.205.811-.286 1.24a14.269 14.269 0 00-.253 2.518c0 .683.057 1.264.172 1.737.114.473.27.863.472 1.168.202.306.449.527.74.662.293.138.618.207.976.207.445 0 .827-.144 1.146-.435.32-.29.608-.673.864-1.153.256-.479.494-1.02.717-1.626.222-.605.46-1.224.716-1.862.256-.638.545-1.258.87-1.863a7.211 7.211 0 011.189-1.626 5.433 5.433 0 011.652-1.153c.635-.285 1.384-.428 2.254-.428zM7.13 70.32c1.108 0 2.13.18 3.067.536.939.36 1.749.89 2.432 1.594.683.703 1.216 1.584 1.595 2.635.38 1.05.569 2.273.569 3.662v1.974h6.835v3.914H.358v-6.047c0-1.335.15-2.518.449-3.542.298-1.027.734-1.89 1.309-2.588a5.53 5.53 0 012.125-1.593c.84-.365 1.803-.545 2.89-.545zm.274 4.07c-.563 0-1.078.087-1.538.26-.46.174-.855.438-1.18.791-.325.353-.575.797-.75 1.333-.174.536-.261 1.174-.261 1.91v2.037h7.795v-2.162c0-.674-.096-1.267-.286-1.785a3.496 3.496 0 00-.821-1.303 3.57 3.57 0 00-1.286-.806 4.806 4.806 0 00-1.673-.275zM10.904 51.64c1.932 0 3.597.218 4.996.656 1.4.437 2.55 1.036 3.45 1.8.9.763 1.568 1.658 2.001 2.683a8.374 8.374 0 01.65 3.29c0 2.717-.93 4.756-2.79 6.125-1.86 1.368-4.566 2.051-8.114 2.051-1.932 0-3.597-.219-4.996-.656-1.4-.437-2.55-1.036-3.45-1.8-.9-.763-1.567-1.659-2-2.683A8.35 8.35 0 010 59.818c0-2.716.927-4.755 2.784-6.124 1.854-1.369 4.563-2.054 8.12-2.054zm.196 4.105c-2.516 0-4.394.327-5.631.98-1.237.652-1.854 1.725-1.854 3.219 0 .749.16 1.383.481 1.91.32.528.789.962 1.409 1.303.617.342 1.381.593 2.287.749.906.159 1.944.236 3.118.236 2.516 0 4.395-.329 5.631-.985 1.238-.659 1.857-1.728 1.857-3.213 0-.749-.159-1.387-.481-1.92-.32-.53-.789-.964-1.409-1.302-.62-.336-1.381-.584-2.287-.743-.909-.156-1.95-.234-3.121-.234zM21.631 38.454l-6.835 2.905c-.65.272-1.14.656-1.472 1.144-.331.488-.496 1.066-.496 1.728v.742h8.806v3.884H.358v-6.013c0-1.138.1-2.168.301-3.093.202-.926.536-1.716 1.002-2.37a4.59 4.59 0 011.824-1.505c.75-.35 1.665-.53 2.751-.53.783 0 1.475.11 2.083.332a4.715 4.715 0 011.571.931c.44.402.795.878 1.065 1.429.271.55.46 1.156.57 1.809.108-.507.403-.968.887-1.39.482-.422 1.18-.842 2.092-1.264l7.13-3.3v4.561h-.003zm-15.007.964c-1.04 0-1.79.32-2.245.965-.454.643-.683 1.605-.683 2.89v1.703H9.7v-1.578c0-.599-.066-1.144-.195-1.635a3.566 3.566 0 00-.587-1.255 2.671 2.671 0 00-.97-.805c-.382-.192-.824-.285-1.324-.285zM3.696 22.08H21.63v3.976H3.696v5.651H.358V16.425h3.338v5.654zM20.063 6.945c0 3.581-2.929 6.495-6.528 6.495-3.6 0-6.528-2.914-6.528-6.495 0-3.582 2.928-6.496 6.528-6.496 3.6 0 6.528 2.914 6.528 6.496zm-10.947 0c0 2.425 1.984 4.399 4.422 4.399 2.438 0 4.421-1.974 4.421-4.4 0-2.425-1.983-4.399-4.421-4.399s-4.422 1.974-4.422 4.4z"/><path d="M20.514 6.945c0 3.83-3.13 6.944-6.98 6.944-3.849 0-6.979-3.114-6.979-6.944S9.685 0 13.535 0c3.85 0 6.98 3.114 6.98 6.945zm-13.053 0c0 3.333 2.727 6.046 6.077 6.046s6.076-2.713 6.076-6.046S16.888.898 13.538.898c-3.35 0-6.077 2.71-6.077 6.047zm10.946 0c0 2.674-2.185 4.848-4.872 4.848-2.688 0-4.873-2.174-4.873-4.848 0-2.675 2.185-4.849 4.873-4.849 2.687 0 4.872 2.174 4.872 4.849zm-8.84 0c0 2.177 1.783 3.95 3.97 3.95 2.189 0 3.97-1.773 3.97-3.95 0-2.178-1.781-3.95-3.97-3.95-2.19 0-3.97 1.77-3.97 3.95zM38.043 10.883c0 1.892-1.55 3.434-3.452 3.434s-3.452-1.542-3.452-3.434c0-1.893 1.55-3.435 3.452-3.435s3.452 1.542 3.452 3.434zm-6.001 0a2.546 2.546 0 002.549 2.536 2.546 2.546 0 002.55-2.537 2.546 2.546 0 00-2.55-2.536 2.546 2.546 0 00-2.55 2.537zM37.002 220.757c0-.991-.808-1.794-1.803-1.794-.996 0-1.803.803-1.803 1.794s.807 1.794 1.803 1.794c.995 0 1.803-.803 1.803-1.794zM41.49 20.178c0 1.26-1.03 2.285-2.297 2.285a2.294 2.294 0 01-2.297-2.285 2.294 2.294 0 012.297-2.285 2.292 2.292 0 012.296 2.285zm-3.619 0c0 .728.593 1.318 1.325 1.318.731 0 1.324-.59 1.324-1.318 0-.725-.593-1.318-1.324-1.318-.732 0-1.325.59-1.325 1.318z"/><path d="M37.492 220.58a2.292 2.292 0 01-2.296 2.285 2.292 2.292 0 01-2.297-2.285 2.295 2.295 0 012.297-2.285 2.293 2.293 0 012.296 2.285zm-3.618 0c0 .728.593 1.318 1.325 1.318.728 0 1.324-.59 1.324-1.318 0-.724-.593-1.317-1.324-1.317-.732 0-1.325.59-1.325 1.317z"/></g><defs><clipPath id="clip0"><path transform="rotate(-90 0 223)" fill="#fff" d="M0 223h223v47H0z"/></clipPath></defs></svg>