<svg width="26" height="196" viewBox="0 0 26 196" fill="none" xmlns="http://www.w3.org/2000/svg">
<path d="M25.432 185.804C25.432 179.54 22.408 175.652 17.584 175.652C11.356 175.652 10.42 181.016 9.772 184.868C9.412 187.064 9.088 188.828 7.792 188.828C6.604 188.828 5.956 187.64 5.956 185.408C5.956 182.96 6.856 181.34 7.828 179.756L3.4 176.084C1.384 178.676 0.375998 181.772 0.375999 185.408C0.375999 191.492 3.328 195.344 7.972 195.344C13.984 195.344 14.956 190.124 15.64 186.344C16.036 184.04 16.396 182.168 17.8 182.168C19.132 182.168 19.852 183.428 19.852 185.804C19.852 188.468 18.772 190.304 17.548 192.104L21.976 195.776C24.28 192.968 25.432 189.656 25.432 185.804ZM25.432 161.299C25.432 153.415 20.752 148.699 12.904 148.699C5.056 148.699 0.375997 153.415 0.375998 161.299C0.375998 169.183 5.056 173.863 12.904 173.863C20.752 173.863 25.432 169.183 25.432 161.299ZM19.636 161.299C19.636 164.935 17.116 167.131 12.904 167.131C8.692 167.131 6.136 164.935 6.136 161.299C6.136 157.627 8.692 155.431 12.904 155.431C17.116 155.431 19.636 157.627 19.636 161.299ZM25 145.535L25 129.011L19.42 129.011L19.42 138.983L0.807995 138.983L0.807996 145.535L25 145.535ZM25 127.656L25 120.924L20.572 119.304L20.572 109.872L25 108.252L25 101.52L0.807994 111.312L0.807994 117.864L25 127.656ZM7.75599 114.588L15.352 111.816L15.352 117.36L7.75599 114.588ZM25 99.3752L25 93.0392L16.9 93.0392L16.9 91.0592L25 86.1272L25 78.7832L16.288 84.5072C15.136 81.4112 12.58 79.5752 8.83599 79.5752C3.57999 79.5752 0.807993 82.7792 0.807993 88.4312L0.807994 99.3752L25 99.3752ZM6.20799 89.0072C6.20799 87.1352 7.14399 86.1272 8.83599 86.1272C10.564 86.1272 11.5 87.1352 11.5 89.0072L11.5 93.0392L6.20799 93.0392L6.20799 89.0072ZM25.432 73.5432C25.432 71.3472 24.136 70.0512 21.904 70.0512C19.708 70.0512 18.412 71.3472 18.412 73.5432C18.412 75.7752 19.708 77.0712 21.904 77.0712C24.136 77.0712 25.432 75.7752 25.432 73.5432Z" fill="white"/>
<path d="M25 66.6095L25 50.0855L19.42 50.0855L19.42 60.0575L0.807992 60.0575L0.807992 66.6095L25 66.6095ZM25 48.7305L25 41.9985L20.572 40.3785L20.572 30.9465L25 29.3265L25 22.5945L0.807991 32.3865L0.807991 38.9385L25 48.7305ZM7.75599 35.6625L15.352 32.8905L15.352 38.4345L7.75599 35.6625ZM25 20.4494L25 8.89337C25 3.45737 22.444 0.397372 17.98 0.397372C15.352 0.397372 13.444 1.69337 12.508 4.03337C11.536 2.23337 9.87999 1.26137 7.61199 1.26137C3.25599 1.26137 0.807989 4.21337 0.80799 9.43337L0.80799 20.4494L25 20.4494ZM6.20799 9.82937C6.20799 8.35337 6.89199 7.59737 8.18799 7.59737C9.48399 7.59737 10.168 8.35337 10.168 9.82937L10.168 14.1134L6.20799 14.1134L6.20799 9.82937ZM19.6 14.1134L15.208 14.1134L15.208 9.36137C15.208 7.74137 15.964 6.91337 17.404 6.91337C18.844 6.91337 19.6 7.74137 19.6 9.36137L19.6 14.1134Z" fill="#34BE41"/>
</svg>
