<svg width="34" height="28" viewBox="0 0 34 28" fill="white" xmlns="http://www.w3.org/2000/svg">
    <path d="M33.17 3.97037C31.9591 4.50682 30.6746 4.85877 29.3593 5.01449C30.7447 4.18558 31.7814 2.88123 32.2762 1.34453C30.9741 2.11756 29.5491 2.66191 28.0632 2.95397C27.4424 2.29181 26.6922 1.7642 25.8591 1.40383C25.0261 1.04347 24.1279 0.858033 23.2202 0.859013C19.5561 0.859013 16.585 3.82925 16.585 7.49417C16.585 8.01371 16.6438 8.52065 16.7572 9.00659C11.2426 8.72981 6.35384 6.08801 3.0812 2.07323C2.49113 3.08588 2.18106 4.23727 2.18282 5.40929C2.18195 6.50172 2.45094 7.57744 2.96588 8.54088C3.48083 9.50432 4.2258 10.3256 5.13458 10.9319C4.08109 10.8984 3.05082 10.6139 2.12948 10.102C2.12864 10.1297 2.12864 10.157 2.12864 10.1855C2.12864 13.3994 4.41554 16.0811 7.45046 16.6913C6.47322 16.9559 5.44861 16.9947 4.45418 16.8047C5.29838 19.4402 7.74866 21.3592 10.6521 21.413C8.30176 23.2574 5.39939 24.2579 2.41172 24.2534C1.87622 24.2534 1.34828 24.2224 0.828735 24.1606C3.86254 26.1099 7.3934 27.1446 10.9995 27.1409C23.2038 27.1409 29.8776 17.0311 29.8776 8.26403C29.8776 7.97675 29.8709 7.68989 29.8583 7.40471C31.158 6.46639 32.2795 5.30332 33.17 3.97037Z"
    />
</svg>
