<svg width="31" height="31" viewBox="0 0 31 31" fill="#fff" xmlns="http://www.w3.org/2000/svg">
    <path d="M29.351 0H1.65C.739 0 0 .738 0 1.649V29.35C0 30.261.738 31 1.649 31H29.35c.91 0 1.649-.738 1.649-1.649V1.65C31 .739 30.262 0 29.351 0zm-4.66 17.46c.845.824 1.738 1.6 2.497 2.512.336.402.652.818.893 1.286.344.667.034 1.4-.564 1.44l-3.713-.001c-.958.078-1.721-.307-2.365-.963-.513-.522-.99-1.08-1.484-1.62a3.5 3.5 0 00-.668-.596c-.506-.328-.945-.228-1.236.3-.295.537-.363 1.134-.39 1.733-.042.876-.306 1.104-1.184 1.145-1.876.088-3.658-.197-5.312-1.142-1.46-.835-2.59-2.013-3.574-3.346-1.918-2.6-3.387-5.454-4.706-8.39-.297-.66-.08-1.014.648-1.028 1.213-.024 2.425-.02 3.635-.001.494.007.82.29 1.009.755.654 1.61 1.458 3.144 2.464 4.565.268.378.541.756.93 1.023.43.296.758.199.961-.281.13-.306.186-.632.214-.959.096-1.12.107-2.24-.059-3.355-.104-.698-.497-1.149-1.193-1.28-.354-.068-.302-.2-.13-.402.299-.35.58-.566 1.14-.566h4.195c.662.128.809.425.899 1.091l.004 4.661c-.007.258.129 1.022.592 1.19.37.123.616-.174.837-.41 1.006-1.067 1.722-2.327 2.364-3.63.283-.575.528-1.17.765-1.767.176-.44.45-.658.948-.65l4.039.005c.119 0 .24 0 .358.02.68.117.866.41.656 1.075-.33 1.043-.976 1.912-1.606 2.783-.674.932-1.393 1.833-2.062 2.77-.613.858-.563 1.29.198 2.033z"/>
</svg>
